<?xml version="1.0" encoding="UTF-8" standalone="no"?>
<!-- This is a Stata 16.1 generated SVG file (http://www.stata.com) -->

<svg version="1.1" width="5.50in" height="4.00in" viewBox="0 0 3960 2880" xmlns="http://www.w3.org/2000/svg" xmlns:xlink="http://www.w3.org/1999/xlink">
	<desc>Stata Graph - Graph</desc>
	<rect x="0" y="0" width="3960" height="2880" style="fill:#F0F0F0;stroke:none"/>
	<rect x="0.00" y="0.00" width="3959.88" height="2880.00" style="fill:#F0F0F0"/>
	<rect x="2.88" y="2.88" width="3954.12" height="2874.24" style="fill:none;stroke:#F0F0F0;stroke-width:5.76"/>
	<rect x="390.80" y="100.86" width="3468.22" height="1852.84" style="fill:#FFFFFF"/>
	<rect x="393.68" y="103.74" width="3462.46" height="1847.08" style="fill:none;stroke:#FFFFFF;stroke-width:5.76"/>
	<line x1="390.80" y1="1953.70" x2="3859.02" y2="1953.70" style="stroke:#E8E8E8;stroke-width:8.64"/>
	<line x1="390.80" y1="1357.21" x2="3859.02" y2="1357.21" style="stroke:#E8E8E8;stroke-width:8.64"/>
	<line x1="390.80" y1="760.72" x2="3859.02" y2="760.72" style="stroke:#E8E8E8;stroke-width:8.64"/>
	<line x1="390.80" y1="164.22" x2="3859.02" y2="164.22" style="stroke:#E8E8E8;stroke-width:8.64"/>
	<rect x="735.45" y="1411.41" width="562.44" height="542.29" style="fill:#FF7F00;fill-opacity:0.40"/>
	<rect x="739.77" y="1415.73" width="553.80" height="533.65" style="fill:none;stroke:#000000;stroke-width:8.64"/>
	<rect x="1297.89" y="1275.78" width="562.57" height="677.92" style="fill:#FF7F00;fill-opacity:0.40"/>
	<rect x="1302.21" y="1280.10" width="553.93" height="669.28" style="fill:none;stroke:#000000;stroke-width:8.64"/>
	<rect x="1860.46" y="733.49" width="562.57" height="1220.21" style="fill:#FF7F00;fill-opacity:0.40"/>
	<rect x="1864.78" y="737.81" width="553.93" height="1211.57" style="fill:none;stroke:#000000;stroke-width:8.64"/>
	<rect x="2423.03" y="733.49" width="562.57" height="1220.21" style="fill:#FF7F00;fill-opacity:0.40"/>
	<rect x="2427.34" y="737.81" width="553.93" height="1211.57" style="fill:none;stroke:#000000;stroke-width:8.64"/>
	<rect x="2985.59" y="1546.92" width="562.57" height="406.78" style="fill:#FF7F00;fill-opacity:0.40"/>
	<rect x="2989.91" y="1551.24" width="553.93" height="398.14" style="fill:none;stroke:#000000;stroke-width:8.64"/>
	<path d=" M735.32 1783.79 L744.73 1779.09 L754.13 1774.38 L763.54 1769.56 L772.94 1764.61 L782.35 1759.66 L791.75 1754.46 L801.16 1749.26 L810.56 1743.94 L819.97 1738.49 L829.37 1733.05 L838.78 1727.36 L848.18 1721.66 L857.59 1715.85 L866.99 1709.91 L876.40 1703.84 L885.80 1697.78 L895.21 1691.47 L904.61 1685.16 L914.14 1678.72 L923.55 1672.16 L932.95 1665.48 L942.36 1658.67 L951.76 1651.87 L961.17 1644.94 L970.57 1637.88 L979.98 1630.70 L989.38 1623.40 L998.79 1615.98 L1008.19 1608.55 L1017.60 1600.88 L1027.00 1593.21 L1036.41 1585.41 L1045.81 1577.49 L1055.22 1569.57 L1064.62 1561.40 L1074.03 1553.23 L1083.43 1544.94 L1092.84 1536.65 L1102.24 1528.11 L1111.65 1519.57 L1121.05 1510.91 L1130.46 1502.12 L1139.86 1493.21 L1149.27 1484.30 L1158.67 1475.27 L1168.08 1466.24 L1177.48 1456.95 L1186.89 1447.67 L1196.29 1438.39 L1205.70 1428.86 L1215.10 1419.46 L1224.51 1409.80 L1233.91 1400.15 L1243.32 1390.37 L1252.72 1380.60 L1262.13 1370.70 L1271.53 1360.80 L1280.94 1350.77 L1290.34 1340.75 L1299.75 1330.60 L1309.15 1320.45 L1318.56 1310.31 L1327.96 1300.03 L1337.37 1289.76 L1346.77 1279.37 L1356.18 1268.97 L1365.58 1258.58 L1374.99 1248.18 L1384.39 1237.66 L1393.80 1227.14 L1403.20 1216.62 L1412.61 1206.11 L1422.01 1195.59 L1431.42 1185.07 L1440.82 1174.42 L1450.23 1163.91 L1459.63 1153.26 L1469.04 1142.74 L1478.44 1132.22 L1487.85 1121.58 L1497.38 1111.06 L1506.78 1100.54 L1516.18 1090.02 L1525.59 1079.63 L1534.99 1069.23 L1544.40 1058.84 L1553.81 1048.44 L1563.21 1038.17 L1572.62 1027.90 L1582.02 1017.63 L1591.42 1007.48 L1600.83 997.46 L1610.23 987.43 L1619.64 977.53 L1629.05 967.63 L1638.45 957.85 L1647.86 948.08 L1657.26 938.43 L1666.66 928.90 L1676.07 919.49 L1685.47 910.21 L1694.88 900.93 L1704.29 891.77 L1713.69 882.86 L1723.10 873.95 L1732.50 865.16 L1741.90 856.50 L1751.31 847.96 L1760.71 839.67 L1770.12 831.38 L1779.53 823.33 L1788.93 815.29 L1798.34 807.49 L1807.74 799.94 L1817.14 792.40 L1826.55 785.09 L1835.95 777.92 L1845.36 770.86 L1854.77 764.06 L1864.17 757.50 L1873.58 750.94 L1882.98 744.63 L1892.38 738.56 L1901.79 732.62 L1911.19 726.93 L1920.60 721.49 L1930.01 716.04 L1939.41 710.97 L1948.82 706.02 L1958.22 701.31 L1967.63 696.86 L1977.03 692.53 L1986.43 688.44 L1995.84 684.61 L2005.24 680.89 L2014.65 677.43 L2024.06 674.21 L2033.46 671.24 L2042.87 668.52 L2052.27 665.92 L2061.68 663.57 L2071.20 661.46 L2080.61 659.61 L2090.01 658.00 L2099.42 656.64 L2108.82 655.40 L2118.23 654.53 L2127.63 653.79 L2137.04 653.30 L2146.44 653.17 L2155.85 653.17 L2165.25 653.30 L2174.66 653.79 L2184.06 654.53 L2193.47 655.40 L2202.87 656.64 L2212.28 658.00 L2221.68 659.61 L2231.09 661.46 L2240.49 663.57 L2249.90 665.92 L2259.30 668.39 L2268.71 671.12 L2278.11 674.21 L2287.52 677.43 L2296.92 680.77 L2306.33 684.48 L2315.73 688.32 L2325.14 692.40 L2334.54 696.73 L2343.95 701.19 L2353.35 705.89 L2362.76 710.84 L2372.16 715.92 L2381.57 721.24 L2390.97 726.81 L2400.38 732.50 L2409.78 738.44 L2419.19 744.50 L2428.59 750.81 L2438.00 757.25 L2447.40 763.93 L2456.81 770.74 L2466.21 777.67 L2475.62 784.85 L2485.02 792.15 L2494.43 799.70 L2503.83 807.37 L2513.24 815.17 L2522.64 823.09 L2532.05 831.13 L2541.45 839.42 L2550.86 847.84 L2560.26 856.25 L2569.67 864.92 L2579.07 873.70 L2588.48 882.61 L2597.88 891.65 L2607.29 900.68 L2616.69 909.96 L2626.10 919.24 L2635.50 928.65 L2644.91 938.18 L2654.44 947.83 L2663.84 957.61 L2673.25 967.38 L2682.65 977.28 L2692.06 987.18 L2701.46 997.21 L2710.87 1007.23 L2720.27 1017.38 L2729.68 1027.65 L2739.08 1037.92 L2748.49 1048.20 L2757.89 1058.59 L2767.30 1068.99 L2776.70 1079.38 L2786.11 1089.78 L2795.51 1100.30 L2804.92 1110.81 L2814.32 1121.33 L2823.73 1131.85 L2833.13 1142.50 L2842.54 1153.01 L2851.94 1163.66 L2861.35 1174.18 L2870.75 1184.70 L2880.16 1195.34 L2889.56 1205.86 L2898.97 1216.38 L2908.37 1226.90 L2917.78 1237.41 L2927.18 1247.93 L2936.59 1258.33 L2945.99 1268.72 L2955.40 1279.12 L2964.80 1289.52 L2974.21 1299.79 L2983.61 1310.06 L2993.02 1320.21 L3002.42 1330.35 L3011.83 1340.50 L3021.23 1350.53 L3030.64 1360.55 L3040.04 1370.45 L3049.45 1380.35 L3058.85 1390.13 L3068.26 1399.90 L3077.66 1409.56 L3087.07 1419.21 L3096.47 1428.61 L3105.88 1438.14 L3115.28 1447.43 L3124.69 1456.71 L3134.09 1465.99 L3143.50 1475.02 L3152.90 1484.06 L3162.31 1493.09 L3171.71 1501.88 L3181.12 1510.66 L3190.52 1519.33 L3199.93 1527.87 L3209.33 1536.40 L3218.74 1544.82 L3228.27 1553.11 L3237.67 1561.28 L3247.08 1569.32 L3256.48 1577.37 L3265.89 1585.29 L3275.29 1593.08 L3284.70 1600.76 L3294.10 1608.31 L3303.51 1615.85 L3312.91 1623.16 L3322.32 1630.46 L3331.72 1637.63 L3341.13 1644.69 L3350.53 1651.74 L3359.94 1658.55 L3369.34 1665.36 L3378.75 1672.04 L3388.15 1678.47 L3397.56 1685.03 L3406.96 1691.34 L3416.37 1697.53 L3425.77 1703.72 L3435.18 1709.78 L3444.58 1715.72 L3453.99 1721.54 L3463.39 1727.23 L3472.80 1732.80 L3482.20 1738.37 L3491.61 1743.82 L3501.01 1749.14 L3510.42 1754.33 L3519.82 1759.53 L3529.23 1764.48 L3538.63 1769.43 L3548.04 1774.26" stroke-linejoin="round" style="fill:none;stroke:#303030;stroke-width:8.64"/>
	<rect x="929.98" y="1767.08" width="408.87" height="186.62" style="fill:#0080FF;fill-opacity:0.50"/>
	<rect x="934.30" y="1771.40" width="400.23" height="177.98" style="fill:none;stroke:#000000;stroke-width:8.64"/>
	<rect x="1338.85" y="1020.85" width="408.75" height="932.86" style="fill:#0080FF;fill-opacity:0.50"/>
	<rect x="1343.17" y="1025.17" width="400.11" height="924.22" style="fill:none;stroke:#000000;stroke-width:8.64"/>
	<rect x="1747.60" y="647.73" width="408.87" height="1305.97" style="fill:#0080FF;fill-opacity:0.50"/>
	<rect x="1751.92" y="652.05" width="400.23" height="1297.33" style="fill:none;stroke:#000000;stroke-width:8.64"/>
	<rect x="2156.47" y="461.11" width="408.75" height="1492.60" style="fill:#0080FF;fill-opacity:0.50"/>
	<rect x="2160.79" y="465.43" width="400.11" height="1483.96" style="fill:none;stroke:#000000;stroke-width:8.64"/>
	<rect x="2565.21" y="274.49" width="408.87" height="1679.22" style="fill:#0080FF;fill-opacity:0.50"/>
	<rect x="2569.53" y="278.81" width="400.23" height="1670.58" style="fill:none;stroke:#000000;stroke-width:8.64"/>
	<line x1="390.80" y1="1953.70" x2="390.80" y2="100.86" style="stroke:#000000;stroke-width:5.76"/>
	<line x1="390.80" y1="1953.70" x2="350.83" y2="1953.70" style="stroke:#000000;stroke-width:5.76"/>
	<text x="300.72" y="1953.70" style="font-family:'Helvetica';font-size:99.99px;fill:#000000" transform="rotate(-90 300.72,1953.70)" text-anchor="middle">0</text>
	<line x1="390.80" y1="1357.21" x2="350.83" y2="1357.21" style="stroke:#000000;stroke-width:5.76"/>
	<text x="300.72" y="1357.21" style="font-family:'Helvetica';font-size:99.99px;fill:#000000" transform="rotate(-90 300.72,1357.21)" text-anchor="middle">.01</text>
	<line x1="390.80" y1="760.72" x2="350.83" y2="760.72" style="stroke:#000000;stroke-width:5.76"/>
	<text x="300.72" y="760.72" style="font-family:'Helvetica';font-size:99.99px;fill:#000000" transform="rotate(-90 300.72,760.72)" text-anchor="middle">.02</text>
	<line x1="390.80" y1="164.22" x2="350.83" y2="164.22" style="stroke:#000000;stroke-width:5.76"/>
	<text x="300.72" y="164.22" style="font-family:'Helvetica';font-size:99.99px;fill:#000000" transform="rotate(-90 300.72,164.22)" text-anchor="middle">.03</text>
	<text x="190.71" y="1027.28" style="font-family:'Helvetica';font-size:99.99px;fill:#000000" transform="rotate(-90 190.71,1027.28)" text-anchor="middle">Density</text>
	<line x1="390.80" y1="1953.70" x2="3859.02" y2="1953.70" style="stroke:#000000;stroke-width:5.76"/>
	<line x1="727.03" y1="1953.70" x2="727.03" y2="1993.67" style="stroke:#000000;stroke-width:5.76"/>
	<text x="727.03" y="2083.66" style="font-family:'Helvetica';font-size:99.99px;fill:#000000" text-anchor="middle">20</text>
	<line x1="1494.16" y1="1953.70" x2="1494.16" y2="1993.67" style="stroke:#000000;stroke-width:5.76"/>
	<text x="1494.16" y="2083.66" style="font-family:'Helvetica';font-size:99.99px;fill:#000000" text-anchor="middle">40</text>
	<line x1="2261.41" y1="1953.70" x2="2261.41" y2="1993.67" style="stroke:#000000;stroke-width:5.76"/>
	<text x="2261.41" y="2083.66" style="font-family:'Helvetica';font-size:99.99px;fill:#000000" text-anchor="middle">60</text>
	<line x1="3028.53" y1="1953.70" x2="3028.53" y2="1993.67" style="stroke:#000000;stroke-width:5.76"/>
	<text x="3028.53" y="2083.66" style="font-family:'Helvetica';font-size:99.99px;fill:#000000" text-anchor="middle">80</text>
	<line x1="3795.66" y1="1953.70" x2="3795.66" y2="1993.67" style="stroke:#000000;stroke-width:5.76"/>
	<text x="3795.66" y="2083.66" style="font-family:'Helvetica';font-size:99.99px;fill:#000000" text-anchor="middle">100</text>
	<text x="2124.91" y="2193.67" style="font-family:'Helvetica';font-size:99.99px;fill:#000000" text-anchor="middle">age</text>
	<rect x="1243.32" y="2278.31" width="1763.19" height="466.30" style="fill:#FFFFFF"/>
	<rect x="1246.20" y="2281.19" width="1757.43" height="460.54" style="fill:none;stroke:#000000;stroke-width:5.76"/>
	<rect x="1286.51" y="2321.50" width="374.34" height="99.99" style="fill:#FF7F00;fill-opacity:0.40"/>
	<rect x="1290.82" y="2325.82" width="365.70" height="91.35" style="fill:none;stroke:#000000;stroke-width:8.64"/>
	<line x1="1286.51" y1="2511.46" x2="1660.85" y2="2511.46" style="stroke:#303030;stroke-width:8.64"/>
	<rect x="1286.51" y="2601.43" width="374.34" height="99.99" style="fill:#0080FF;fill-opacity:0.50"/>
	<rect x="1290.82" y="2605.75" width="365.70" height="91.35" style="fill:none;stroke:#000000;stroke-width:8.64"/>
	<text x="1720.87" y="2406.52" style="font-family:'Helvetica';font-size:99.99px;fill:#000000">Sampled from Normal</text>
	<text x="1720.87" y="2546.49" style="font-family:'Helvetica';font-size:99.99px;fill:#000000">Theoretical Normal</text>
	<text x="1720.87" y="2686.46" style="font-family:'Helvetica';font-size:99.99px;fill:#000000">Sampled from t-distribution</text>
</svg>
